<svg xmlns="http://www.w3.org/2000/svg" width="32.001" height="32.001" viewBox="0 0 32.001 32.001">
  <g id="Group_80" data-name="Group 80" transform="translate(-186.745 -464)">
    <path id="Path_1" data-name="Path 1" d="M-2467.171,323a1.01,1.01,0,0,1-1.017-1.012V293.023h-28.963a1.014,1.014,0,0,1-1.017-1.012,1.014,1.014,0,0,1,1.017-1.011h29.979a1.012,1.012,0,0,1,1,1.011v29.977A1.012,1.012,0,0,1-2467.171,323Z" transform="translate(2684.913 173)" fill="#fff"/>
    <path id="Line_42" data-name="Line 42" d="M.012,31A1.009,1.009,0,0,1-.7,30.7a1.012,1.012,0,0,1,0-1.431L29.274-.7A1.012,1.012,0,0,1,30.7.727L.727,30.7A1.009,1.009,0,0,1,.012,31Z" transform="translate(187.745 465)" fill="#fff"/>
  </g>
</svg>
