<svg xmlns="http://www.w3.org/2000/svg" width="16.585" height="17" viewBox="0 0 16.585 17">
  <path id="filter" d="M6.309,16.5h0a1.166,1.166,0,0,1-1.165-1.174v-6a1,1,0,0,0-.195-.589l-.006-.009L4.936,8.72-.281,1.359A1.174,1.174,0,0,1-.371.135,1.163,1.163,0,0,1,.668-.5H14.912a1.163,1.163,0,0,1,1.04.636,1.175,1.175,0,0,1-.092,1.226L10.633,8.737a1,1,0,0,0-.195.59V14.2a1.138,1.138,0,0,1-.771,1.1L6.754,16.412A1.178,1.178,0,0,1,6.309,16.5ZM5.752,8.147A2.007,2.007,0,0,1,6.14,9.326v6a.172.172,0,0,0,.049.123.177.177,0,0,0,.19.035l.014-.006,2.964-1.131a.147.147,0,0,0,.084-.15V9.326a2.009,2.009,0,0,1,.385-1.176l.006-.008L15.05.781a.18.18,0,0,0,.016-.19A.17.17,0,0,0,14.914.5H.669A.171.171,0,0,0,.516.591.18.18,0,0,0,.53.779L5.749,8.143Z" transform="translate(0.502 0.5)" fill="#fff"/>
</svg>
