<svg xmlns="http://www.w3.org/2000/svg" style="enable-background:new 0 0 113 120.2" viewBox="0 0 113 120.2" xml:space="preserve"><path d="M54.6 17.2c-23.7 0-42.9 19.2-42.9 42.9S30.9 103 54.6 103c8.3 0 16-2.4 22.5-6.5V85.1c-4.4 3.8-10.1 6.1-16.3 6.1-13.8 0-24.9-11.1-24.9-24.9s11.2-24.9 24.9-24.9 24.9 11.2 24.9 24.9v23.3c7.3-7.7 11.8-18.1 11.8-29.5 0-23.7-19.2-42.9-42.9-42.9z" style="fill:#000"/><path d="M414 54.3c-4-1.5-7-2.2-7-4.7 0-2.3 2.4-3.4 6.1-3.4 4.5 0 8.5 1.6 11.6 3.8v-8.7c-2.8-2.1-6.9-3.5-12-3.5-8.1 0-14.7 4.2-14.7 11.7 0 5.7 3.2 8.9 8.8 11.3 6 2.6 11.9 3.9 11.9 7.3 0 2.4-2.5 3.8-6.8 3.8-6.5 0-11.4-2.2-14.9-5.3V76c4 2.7 8.8 4.3 14.8 4.3 11.8 0 16.2-6.4 16.2-12.4-.1-8.2-6.8-10.9-14-13.6m28.7.5c.3-4.8 5.2-8.6 11.1-8.6 5.5 0 9.9 3.9 9.9 8.6h-21zm11-16.8c-12 0-20.8 8.2-20.8 21.1v.4c0 12.7 8.6 20.9 21.2 20.9 7 0 11.1-1.4 14.8-4.1v-8.9c-2.2 2-6.6 4.6-14.4 4.6-7.2 0-11.8-4.1-12.1-10.5h30.8c.2-1.6.2-3.4.2-3.4 0-11.1-7.8-20.1-19.7-20.1m46.2 9.7V39h-8.4V23.6h-9.6V39h-6v8.7h6v19c0 12.1 7.5 13.6 13 13.6 1.8 0 3.6-.2 4.9-.5v-8.5c-1.2.2-2.3.3-3.4.3-3.4 0-5-1.6-5-6v-18h8.5v.1zm-122.7 6.6c-4-1.5-7-2.2-7-4.7 0-2.3 2.4-3.4 6.1-3.4 4.5 0 8.5 1.6 11.6 3.8v-8.7c-2.8-2.1-6.9-3.5-12-3.5-8.1 0-14.7 4.2-14.7 11.7 0 5.7 3.2 8.9 8.8 11.3 6 2.6 11.9 3.9 11.9 7.3 0 2.4-2.5 3.8-6.8 3.8-6.5 0-11.4-2.2-14.9-5.3V76c4 2.7 8.8 4.3 14.8 4.3 11.8 0 16.2-6.4 16.2-12.4-.1-8.2-6.8-10.9-14-13.6m-44.7 17.1c-6.8 0-11.9-5.3-11.9-12.3s5.1-12.3 11.9-12.3c6.9 0 12.3 5.3 12.3 12.3s-5.3 12.3-12.3 12.3m11.6-26.6c-1.4-3.8-6.1-6.7-12.9-6.7-11.3 0-20.1 9.1-20.1 21s8.8 21 20.1 21c6.8 0 11.5-3 12.9-6.7v5.8h9.6V39h-9.6v5.8z" style="fill:#fff"/></svg>