<svg xmlns="http://www.w3.org/2000/svg" width="64" height="64" viewBox="0 0 64 64">
  <g id="Group_5113" data-name="Group 5113" transform="translate(-5035.26 1579.512)">
    <path id="Line_42" data-name="Line 42" d="M1.43,45.255A1.43,1.43,0,0,1,.419,42.813L42.813.419a1.43,1.43,0,1,1,2.023,2.023L2.442,44.836A1.426,1.426,0,0,1,1.43,45.255Z" transform="translate(5035.26 -1547.512) rotate(-45)" fill="#fff"/>
    <path id="Line_42-2" data-name="Line 42" d="M1.431,45.243A1.431,1.431,0,0,1,.419,42.8L42.8.419a1.431,1.431,0,0,1,2.023,2.023L2.442,44.824A1.426,1.426,0,0,1,1.431,45.243Z" transform="translate(5067.26 -1579.504) rotate(45)" fill="#fff"/>
  </g>
</svg>
