<svg xmlns="http://www.w3.org/2000/svg" width="18" height="18" viewBox="0 0 18 18">
  <g id="Group_5085" data-name="Group 5085" transform="translate(-914 -410)">
    <path id="Path_920" data-name="Path 920" d="M7.5,1A6.5,6.5,0,1,1,1,7.5,6.508,6.508,0,0,1,7.5,1m0-1A7.5,7.5,0,1,0,15,7.5,7.5,7.5,0,0,0,7.5,0" transform="translate(914 410)" fill="#1f1f1f"/>
    <path id="Line_197" data-name="Line 197" d="M4.781,5.281a.5.5,0,0,1-.354-.146L-.354.354a.5.5,0,0,1,0-.707.5.5,0,0,1,.707,0L5.135,4.427a.5.5,0,0,1-.354.854Z" transform="translate(926.719 422.719)" fill="#1f1f1f"/>
  </g>
</svg>
