<svg xmlns="http://www.w3.org/2000/svg" viewBox="0 0 16 16"><script xmlns=""/>
    <path d="M 8 0.05078125 L 8 2 C 4.6918661 2 2 4.6918661 2 8 C 2 9.9307364 2.9147071 11.655762 4.3359375 12.751953 L 4.9472656 11.960938 C 3.762496 11.047128 3 9.6152636 3 8 C 3 5.2321339 5.2321339 3 8 3 L 8 4.9492188 L 10.5 2.5 L 8 0.05078125 z M 11.673828 3.2558594 L 11.060547 4.046875 C 12.240431 4.9629451 13 6.3883394 13 8 C 13 10.767866 10.767866 13 8 13 L 8 11.050781 L 5.5 13.5 L 8 15.949219 L 8 14 C 11.308134 14 14 11.308134 14 8 C 14 6.0736606 13.087944 4.3537893 11.673828 3.2558594 z" fill="#0369a1"/>
<script xmlns=""/></svg>